<svg width="1115.373828125px" height="200.8099853515625px" xmlns="http://www.w3.org/2000/svg" viewBox="-307.6869140625 -19.404992675781244 1115.373828125 188.8099853515625" style="background: none;" preserveAspectRatio="xMidYMid"><defs><filter id="editing-extrude-glow"><feFlood flood-color="none" result="flood-1"></feFlood><feMorphology operator="erode" radius="1" in="SourceAlpha" result="erode"></feMorphology><feComposite operator="in" in="flood-1" in2="erode" result="comp1"></feComposite><feConvolveMatrix order="3,3" divisor="1" in="comp1" result="convolve" kernelMatrix="0 0 0 1 1 1 0 0 0"></feConvolveMatrix><feOffset dx="-3" dy="0" in="convolve" result="extrude"></feOffset><feComposite operator="in" in="flood-1" in2="extrude" result="comp-extrude"></feComposite><feFlood flood-color="#dce4eb" result="flood-2"></feFlood><feComposite operator="in" in="flood-2" in2="SourceAlpha" result="comp2"></feComposite><feMorphology operator="dilate" radius="1" in="comp2" result="dilate"></feMorphology><feOffset dx="-4.5" dy="0" in="dilate" result="offset"></feOffset><feGaussianBlur in="offset" stdDeviation="5.8" result="blur"></feGaussianBlur><feComponentTransfer in="blur" result="shadow"><feFuncA type="linear" slope="0.8" intercept="-0.2"></feFuncA></feComponentTransfer><feMerge><feMergeNode in="shadow"></feMergeNode><feMergeNode in="comp-extrude"></feMergeNode><feMergeNode in="SourceGraphic"></feMergeNode></feMerge></filter></defs><g filter="url(#editing-extrude-glow)"><g transform="translate(-152.19279789924622, 120.31999969482422)"><path d="M7.66-58.08L2.20-58.08L2.20-61.60L20.77-61.60L23.85-14.52L23.85-14.52Q24.46-5.54 32.03-5.54L32.03-5.54L32.03-5.54Q37.66-5.54 41.80-9.77L41.80-9.77L41.80-9.77Q49.90-18.04 49.90-34.32L49.90-34.32L49.90-34.32Q49.90-43.38 46.73-50.42L46.73-50.42L46.73-50.42Q45.14-53.94 42.59-55.04L42.59-55.04L42.59-55.04Q40.04-56.14 35.82-56.14L35.82-56.14L32.47-56.14L31.94-59.40L41.10-62.48L41.10-62.48Q42.59-62.92 43.74-62.92L43.74-62.92L43.74-62.92Q44.88-62.92 45.67-62.57L45.67-62.57L45.67-62.57Q48.84-61.25 51.92-54.52L51.92-54.52L51.92-54.52Q55-47.78 55-36.43L55-36.43L55-36.43Q55-21.82 48.75-10.65L48.75-10.65L48.75-10.65Q45.76-5.19 40.61-1.94L40.61-1.94L40.61-1.94Q35.46 1.32 28.86 1.32L28.86 1.32L28.86 1.32Q19.18 1.32 15.00-3.87L15.00-3.87L15.00-3.87Q10.82-9.06 10.12-19.80L10.12-19.80L7.66-58.08ZM73.88-53.99L73.88-53.99L73.88-53.99Q71.81-56.06 71.81-58.96L71.81-58.96L71.81-58.96Q71.81-61.86 73.88-63.93L73.88-63.93L73.88-63.93Q75.94-66 78.85-66L78.85-66L78.85-66Q81.75-66 83.82-63.93L83.82-63.93L83.82-63.93Q85.89-61.86 85.89-58.96L85.89-58.96L85.89-58.96Q85.89-56.06 83.82-53.99L83.82-53.99L83.82-53.99Q81.75-51.92 78.85-51.92L78.85-51.92L78.85-51.92Q75.94-51.92 73.88-53.99ZM77.18-45.32L77.18-45.32L77.18-45.32Q85.45-45.32 85.45-38.19L85.45-38.19L85.45-9.77L85.45-9.77Q85.45-7.39 86.59-6.03L86.59-6.03L86.59-6.03Q87.74-4.66 90.11-4.66L90.11-4.66L90.11-4.66Q92.49-4.66 95.57-7.22L95.57-7.22L97.15-5.10L97.15-5.10Q90.11 1.32 83.07 1.32L83.07 1.32L83.07 1.32Q72.25 1.32 72.25-11.62L72.25-11.62L72.25-41.10L72.25-41.10Q67.41-39.86 64.86-36.78L64.86-36.78L62.48-39.51L62.48-39.51Q65.03-42.15 68.95-43.74L68.95-43.74L68.95-43.74Q72.86-45.32 77.18-45.32ZM134.73-44L147.93-44L147.93-9.77L147.93-9.77Q147.93-7.39 149.07-6.03L149.07-6.03L149.07-6.03Q150.22-4.66 152.59-4.66L152.59-4.66L152.59-4.66Q154.97-4.66 158.05-7.22L158.05-7.22L159.63-5.10L159.63-5.10Q152.59 1.32 145.55 1.32L145.55 1.32L145.55 1.32Q137.19 1.32 135.26-6.51L135.26-6.51L135.26-6.51Q130.68 1.32 121.79 1.32L121.79 1.32L121.79 1.32Q111.67 1.32 106.39-5.24L106.39-5.24L106.39-5.24Q101.11-11.79 101.11-21.96L101.11-21.96L101.11-21.96Q101.11-32.12 106.79-38.72L106.79-38.72L106.79-38.72Q112.46-45.32 122.67-45.32L122.67-45.32L122.67-45.32Q130.50-45.32 134.73-39.07L134.73-39.07L134.73-44ZM117.22-35.38L117.22-35.38L117.22-35.38Q114.75-30.45 114.75-22L114.75-22L114.75-22Q114.75-13.55 117.22-8.62L117.22-8.62L117.22-8.62Q119.68-3.70 124.74-3.70L124.74-3.70L124.74-3.70Q129.80-3.70 132.48-8.67L132.48-8.67L132.48-8.67Q135.17-13.64 135.17-22L135.17-22L135.17-22Q135.17-30.36 132.48-35.33L132.48-35.33L132.48-35.33Q129.80-40.30 124.74-40.30L124.74-40.30L124.74-40.30Q119.68-40.30 117.22-35.38ZM215.07-58.08L215.07-58.08L208.91-58.08L208.91-27.98L227.39-27.98L227.39-24.02L208.91-24.02L208.91-3.52L218.59-3.52L218.59 0L190.43 0L190.43-3.52L195.71-3.52L195.71-58.08L190.43-58.08L190.43-61.60L228.18-61.60L228.18-61.60Q230.12-61.60 231.04-61.47L231.04-61.47L231.04-61.47Q231.97-61.34 232.76-60.50L232.76-60.50L232.76-60.50Q233.55-59.66 233.55-57.90L233.55-57.90L231.18-43.12L227.74-43.12L225.98-51.83L225.98-51.83Q225.19-55.79 223.04-56.94L223.04-56.94L223.04-56.94Q220.88-58.08 215.07-58.08ZM234.43-61.51L234.43-61.51Q236.98-64.15 240.90-65.74L240.90-65.74L240.90-65.74Q244.82-67.32 248.64-67.32L248.64-67.32L248.64-67.32Q252.47-67.32 254.94-65.78L254.94-65.78L254.94-65.78Q257.40-64.24 257.40-61.95L257.40-61.95L257.40-9.77L257.40-9.77Q257.40-7.39 258.54-6.03L258.54-6.03L258.54-6.03Q259.69-4.66 262.06-4.66L262.06-4.66L262.06-4.66Q264.44-4.66 267.52-7.22L267.52-7.22L269.10-5.10L269.10-5.10Q262.06 1.32 255.02 1.32L255.02 1.32L255.02 1.32Q244.20 1.32 244.20-11.62L244.20-11.62L244.20-63.10L244.20-63.10Q239.36-61.86 236.81-58.78L236.81-58.78L234.43-61.51ZM279.53-5.41L279.53-5.41L279.53-5.41Q273.06-12.14 273.06-22L273.06-22L273.06-22Q273.06-31.86 279.53-38.59L279.53-38.59L279.53-38.59Q286-45.32 296.38-45.32L296.38-45.32L296.38-45.32Q306.77-45.32 313.24-38.59L313.24-38.59L313.24-38.59Q319.70-31.86 319.70-22L319.70-22L319.70-22Q319.70-12.14 313.24-5.41L313.24-5.41L313.24-5.41Q306.77 1.32 296.38 1.32L296.38 1.32L296.38 1.32Q286 1.32 279.53-5.41ZM289.17-36.12L289.17-36.12L289.17-36.12Q286.70-30.62 286.70-22L286.70-22L286.70-22Q286.70-13.38 289.17-7.88L289.17-7.88L289.17-7.88Q291.63-2.38 296.47-2.38L296.47-2.38L296.47-2.38Q301.31-2.38 303.78-7.88L303.78-7.88L303.78-7.88Q306.24-13.38 306.24-22L306.24-22L306.24-22Q306.24-30.62 303.78-36.12L303.78-36.12L303.78-36.12Q301.31-41.62 296.47-41.62L296.47-41.62L296.47-41.62Q291.63-41.62 289.17-36.12ZM360.01-45.32L360.01-45.32L360.01-45.32Q362.65-45.32 362.65-40.30L362.65-40.30L362.65-9.77L362.65-9.77Q362.65-7.39 363.79-6.03L363.79-6.03L363.79-6.03Q364.94-4.66 367.31-4.66L367.31-4.66L367.31-4.66Q369.69-4.66 372.77-7.22L372.77-7.22L374.35-5.10L374.35-5.10Q367.31 1.32 360.27 1.32L360.27 1.32L360.27 1.32Q349.45 1.32 349.45-11.62L349.45-11.62L349.45-36.34L349.45-36.34Q345.31-34.67 339.42-34.06L339.42-34.06L339.42-34.06Q338.71-25.96 334.75-17.86L334.75-17.86L331.14-18.92L331.14-18.92Q333.61-25.17 333.78-33.79L333.78-33.79L333.78-33.79Q330.44-33.79 328.37-35.73L328.37-35.73L328.37-35.73Q326.30-37.66 326.30-40.52L326.30-40.52L326.30-40.52Q326.30-43.38 328.28-45.36L328.28-45.36L328.28-45.36Q330.26-47.34 333.12-47.34L333.12-47.34L333.12-47.34Q335.98-47.34 337.92-45.32L337.92-45.32L337.92-45.32Q339.86-43.30 339.86-40.13L339.86-40.13L341.53-40.13L341.53-40.13Q348.48-40.13 356.31-44L356.31-44L356.31-44Q358.86-45.32 360.01-45.32ZM411.93-44L425.13-44L425.13-9.77L425.13-9.77Q425.13-7.39 426.27-6.03L426.27-6.03L426.27-6.03Q427.42-4.66 429.79-4.66L429.79-4.66L429.79-4.66Q432.17-4.66 435.25-7.22L435.25-7.22L436.83-5.10L436.83-5.10Q429.79 1.32 422.75 1.32L422.75 1.32L422.75 1.32Q414.39 1.32 412.46-6.51L412.46-6.51L412.46-6.51Q407.88 1.32 398.99 1.32L398.99 1.32L398.99 1.32Q388.87 1.32 383.59-5.24L383.59-5.24L383.59-5.24Q378.31-11.79 378.31-21.96L378.31-21.96L378.31-21.96Q378.31-32.12 383.99-38.72L383.99-38.72L383.99-38.72Q389.66-45.32 399.87-45.32L399.87-45.32L399.87-45.32Q407.70-45.32 411.93-39.07L411.93-39.07L411.93-44ZM394.42-35.38L394.42-35.38L394.42-35.38Q391.95-30.45 391.95-22L391.95-22L391.95-22Q391.95-13.55 394.42-8.62L394.42-8.62L394.42-8.62Q396.88-3.70 401.94-3.70L401.94-3.70L401.94-3.70Q407-3.70 409.68-8.67L409.68-8.67L409.68-8.67Q412.37-13.64 412.37-22L412.37-22L412.37-22Q412.37-30.36 409.68-35.33L409.68-35.33L409.68-35.33Q407-40.30 401.94-40.30L401.94-40.30L401.94-40.30Q396.88-40.30 394.42-35.38ZM498.34 11.62L498.34 11.62L482.06 11.62L482.06 11.62Q469.13 11.62 469.13 0.79L469.13 0.79L469.13 0.79Q469.13-5.10 475.64-12.50L475.64-12.50L475.64-12.50Q468.51-17.69 468.51-26.84L468.51-26.84L468.51-26.84Q468.51-34.67 474.23-40.00L474.23-40.00L474.23-40.00Q479.95-45.32 489.19-45.32L489.19-45.32L489.19-45.32Q495.88-45.32 501.07-42.24L501.07-42.24L501.07-42.24Q504.86-45.67 506.26-51.22L506.26-51.22L509.70-50.34L509.70-50.34Q508.11-44.18 503.89-40.13L503.89-40.13L503.89-40.13Q509.87-34.67 509.87-26.84L509.87-26.84L509.87-26.84Q509.87-19.01 504.15-13.68L504.15-13.68L504.15-13.68Q498.43-8.36 489.19-8.36L489.19-8.36L489.19-8.36Q482.86-8.36 478.19-10.91L478.19-10.91L478.19-10.91Q475.11-6.60 475.11-4.40L475.11-4.40L475.11-4.40Q475.11 0 480.22 0L480.22 0L496.50 0L496.50 0Q509.43 0 509.43 9.50L509.43 9.50L509.43 9.50Q509.43 16.28 503.01 23.32L503.01 23.32L500.90 21.30L500.90 21.30Q503.45 18.22 503.45 16.06L503.45 16.06L503.45 16.06Q503.45 13.90 502.08 12.76L502.08 12.76L502.08 12.76Q500.72 11.62 498.34 11.62ZM483.96-37.49L483.96-37.49L483.96-37.49Q482.15-33.35 482.15-26.84L482.15-26.84L482.15-26.84Q482.15-20.33 483.96-16.19L483.96-16.19L483.96-16.19Q485.76-12.06 489.28-12.06L489.28-12.06L489.28-12.06Q492.80-12.06 494.60-16.19L494.60-16.19L494.60-16.19Q496.41-20.33 496.41-26.84L496.41-26.84L496.41-26.84Q496.41-33.35 494.60-37.49L494.60-37.49L494.60-37.49Q492.80-41.62 489.28-41.62L489.28-41.62L489.28-41.62Q485.76-41.62 483.96-37.49ZM555.37-44L568.57-44L568.57-9.77L568.57-9.77Q568.57-7.39 569.71-6.03L569.71-6.03L569.71-6.03Q570.86-4.66 573.23-4.66L573.23-4.66L573.23-4.66Q575.61-4.66 578.69-7.22L578.69-7.22L580.27-5.10L580.27-5.10Q573.23 1.32 566.19 1.32L566.19 1.32L566.19 1.32Q557.83 1.32 555.90-6.51L555.90-6.51L555.90-6.51Q551.32 1.32 542.43 1.32L542.43 1.32L542.43 1.32Q532.31 1.32 527.03-5.24L527.03-5.24L527.03-5.24Q521.75-11.79 521.75-21.96L521.75-21.96L521.75-21.96Q521.75-32.12 527.43-38.72L527.43-38.72L527.43-38.72Q533.10-45.32 543.31-45.32L543.31-45.32L543.31-45.32Q551.14-45.32 555.37-39.07L555.37-39.07L555.37-44ZM537.86-35.38L537.86-35.38L537.86-35.38Q535.39-30.45 535.39-22L535.39-22L535.39-22Q535.39-13.55 537.86-8.62L537.86-8.62L537.86-8.62Q540.32-3.70 545.38-3.70L545.38-3.70L545.38-3.70Q550.44-3.70 553.12-8.67L553.12-8.67L553.12-8.67Q555.81-13.64 555.81-22L555.81-22L555.81-22Q555.81-30.36 553.12-35.33L553.12-35.33L553.12-35.33Q550.44-40.30 545.38-40.30L545.38-40.30L545.38-40.30Q540.32-40.30 537.86-35.38ZM613.10-45.32L613.10-45.32L613.10-45.32Q615.74-45.32 615.74-40.30L615.74-40.30L615.74-9.77L615.74-9.77Q615.74-7.39 616.88-6.03L616.88-6.03L616.88-6.03Q618.02-4.66 620.40-4.66L620.40-4.66L620.40-4.66Q622.78-4.66 625.86-7.22L625.86-7.22L627.44-5.10L627.44-5.10Q620.40 1.32 613.36 1.32L613.36 1.32L613.36 1.32Q602.54 1.32 602.54-11.62L602.54-11.62L602.54-36.34L602.54-36.34Q598.40-34.67 592.50-34.06L592.50-34.06L592.50-34.06Q591.80-25.96 587.84-17.86L587.84-17.86L584.23-18.92L584.23-18.92Q586.70-25.17 586.87-33.79L586.87-33.79L586.87-33.79Q583.53-33.79 581.46-35.73L581.46-35.73L581.46-35.73Q579.39-37.66 579.39-40.52L579.39-40.52L579.39-40.52Q579.39-43.38 581.37-45.36L581.37-45.36L581.37-45.36Q583.35-47.34 586.21-47.34L586.21-47.34L586.21-47.34Q589.07-47.34 591.01-45.32L591.01-45.32L591.01-45.32Q592.94-43.30 592.94-40.13L592.94-40.13L594.62-40.13L594.62-40.13Q601.57-40.13 609.40-44L609.40-44L609.40-44Q611.95-45.32 613.10-45.32ZM678.22-61.95L678.22-61.95L678.22-9.77L678.22-9.77Q678.22-7.39 679.36-6.03L679.36-6.03L679.36-6.03Q680.50-4.66 682.66-4.66L682.66-4.66L682.66-4.66Q684.82-4.66 687.90-7.22L687.90-7.22L689.92-5.10L689.92-5.10Q682.88 1.32 675.84 1.32L675.84 1.32L675.84 1.32Q667.48 1.32 665.54-6.51L665.54-6.51L665.54-6.51Q660.97 1.32 652.08 1.32L652.08 1.32L652.08 1.32Q641.96 1.32 636.68-5.24L636.68-5.24L636.68-5.24Q631.40-11.79 631.40-21.96L631.40-21.96L631.40-21.96Q631.40-32.12 637.08-38.72L637.08-38.72L637.08-38.72Q642.75-45.32 652.96-45.32L652.96-45.32L652.96-45.32Q660.79-45.32 665.02-39.07L665.02-39.07L665.02-63.10L665.02-63.10Q660.18-61.86 657.62-58.78L657.62-58.78L655.25-61.51L655.25-61.51Q657.80-64.15 661.72-65.74L661.72-65.74L661.72-65.74Q665.63-67.32 669.46-67.32L669.46-67.32L669.46-67.32Q673.29-67.32 675.75-65.78L675.75-65.78L675.75-65.78Q678.22-64.24 678.22-61.95ZM647.50-35.38L647.50-35.38L647.50-35.38Q645.04-30.45 645.04-22L645.04-22L645.04-22Q645.04-13.55 647.50-8.62L647.50-8.62L647.50-8.62Q649.97-3.70 655.03-3.70L655.03-3.70L655.03-3.70Q660.09-3.70 662.77-8.67L662.77-8.67L662.77-8.67Q665.46-13.64 665.46-22L665.46-22L665.46-22Q665.46-30.36 662.77-35.33L662.77-35.33L662.77-35.33Q660.09-40.30 655.03-40.30L655.03-40.30L655.03-40.30Q649.97-40.30 647.50-35.38ZM712.27-20.33L712.27-20.33Q717.99-20.86 721.12-24.68L721.12-24.68L721.12-24.68Q724.24-28.51 724.24-32.43L724.24-32.43L724.24-32.43Q724.24-36.34 722.52-38.46L722.52-38.46L722.52-38.46Q720.81-40.57 717.33-40.57L717.33-40.57L717.33-40.57Q713.86-40.57 710.69-35.64L710.69-35.64L710.69-35.64Q707.52-30.71 707.52-22.44L707.52-22.44L707.52-22.44Q707.52-14.17 710.51-9.15L710.51-9.15L710.51-9.15Q713.50-4.14 719.05-4.14L719.05-4.14L719.05-4.14Q727.50-4.14 733.39-10.74L733.39-10.74L735.86-9.15L735.86-9.15Q732.86-4.40 727.94-1.54L727.94-1.54L727.94-1.54Q723.01 1.32 716.85 1.32L716.85 1.32L716.85 1.32Q706.38 1.32 700.13-5.59L700.13-5.59L700.13-5.59Q693.88-12.50 693.88-22.26L693.88-22.26L693.88-22.26Q693.88-32.03 700.52-38.68L700.52-38.68L700.52-38.68Q707.17-45.32 718.96-45.32L718.96-45.32L718.96-45.32Q726.70-45.32 731.10-41.71L731.10-41.71L731.10-41.71Q735.50-38.10 735.50-32.56L735.50-32.56L735.50-32.56Q735.50-27.02 730.62-22.31L730.62-22.31L730.62-22.31Q725.74-17.60 717.73-17.60L717.73-17.60L717.73-17.60Q715-17.60 712.45-18.22L712.45-18.22L712.27-20.33ZM751.61-44L751.61-44L751.61-44Q758.82-44 764.63-39.60L764.63-39.60L764.63-39.60Q767.98-42.77 771.50-44.04L771.50-44.04L771.50-44.04Q775.02-45.32 780.52-45.32L780.52-45.32L780.52-45.32Q786.02-45.32 789.49-41.84L789.49-41.84L789.49-41.84Q792.97-38.37 792.97-32.38L792.97-32.38L792.97-9.77L792.97-9.77Q792.97-7.39 794.11-6.03L794.11-6.03L794.11-6.03Q795.26-4.66 797.63-4.66L797.63-4.66L797.63-4.66Q800.01-4.66 803.09-7.22L803.09-7.22L804.67-5.10L804.67-5.10Q797.63 1.32 790.59 1.32L790.59 1.32L790.59 1.32Q779.77 1.32 779.77-11.62L779.77-11.62L779.77-34.23L779.77-34.23Q779.77-36.96 778.10-38.46L778.10-38.46L778.10-38.46Q776.42-39.95 773.48-39.95L773.48-39.95L773.48-39.95Q770.53-39.95 767.67-37.58L767.67-37.58L767.67-37.58Q764.81-35.20 764.81-31.42L764.81-31.42L764.81 0L751.61 0L751.61-40.48L751.61-40.48Q747.65-40.48 744.57-39.16L744.57-39.16L743.34-42.42L743.34-42.42Q747.12-44 751.61-44Z" fill="#c10016"></path></g></g><style>text {
  font-size: 100px;
  font-family: Arial Black;
  dominant-baseline: central;
  text-anchor: middle;
}</style></svg>